<svg width="148" height="254" viewBox="0 0 148 254" fill="none" xmlns="http://www.w3.org/2000/svg">
<path d="M0.5 8.28287C67.9798 -6.72964 92.7019 2.24851 99.8014 67.3448C99.8014 67.3448 99.8014 69.2478 100.337 72.0945M100.337 72.0945C101.379 77.631 104.447 86.7372 113.481 92.3557C127.16 100.863 136.279 88.3522 136.279 88.3522C136.279 88.3522 141.853 76.3418 129.693 67.3448C114.758 60.8716 105.399 64.297 100.337 72.0945ZM100.337 72.0945C89.7019 88.4766 90.4807 127.5 113.481 131.5C113.481 131.5 125.5 132.5 136.279 145.902C147.059 159.304 151.746 175.483 133 195.5C122.01 207.235 90 214 69.3886 234.261M69.3886 234.261L77.5 241.5L41.8708 250.754L65.5 221L69.3886 234.261Z" stroke="black" stroke-width="3"/>
<path d="M86.226 195.124L97.8639 215.278L95.0691 216.892L76.2897 208.027L76.1027 208.135L84.6379 222.916L81.5971 224.671L69.9592 204.518L72.7737 202.892L91.5743 211.772L91.7613 211.664L83.2147 196.863L86.226 195.124ZM108.899 210.149C107.424 210.858 105.975 211.139 104.55 210.992C103.126 210.845 101.818 210.31 100.626 209.387C99.4337 208.464 98.4468 207.19 97.6652 205.566C96.8804 203.934 96.4978 202.361 96.5176 200.847C96.5374 199.332 96.9343 197.973 97.7083 196.768C98.4824 195.564 99.6067 194.607 101.081 193.897C102.556 193.188 104.005 192.907 105.43 193.054C106.854 193.201 108.164 193.74 109.359 194.67C110.555 195.599 111.545 196.88 112.33 198.512C113.111 200.136 113.49 201.703 113.467 203.21C113.444 204.718 113.046 206.074 112.272 207.278C111.498 208.483 110.373 209.44 108.899 210.149ZM107.673 207.574C108.628 207.114 109.299 206.481 109.684 205.673C110.069 204.866 110.21 203.97 110.106 202.986C110.009 201.998 109.718 200.999 109.232 199.989C108.749 198.985 108.152 198.138 107.441 197.446C106.734 196.744 105.943 196.288 105.068 196.078C104.194 195.868 103.279 195.993 102.323 196.453C101.36 196.916 100.685 197.556 100.296 198.373C99.9144 199.187 99.7735 200.092 99.8735 201.086C99.9771 202.07 100.27 203.064 100.753 204.068C101.239 205.078 101.834 205.931 102.538 206.626C103.25 207.318 104.041 207.766 104.912 207.969C105.79 208.168 106.71 208.037 107.673 207.574ZM123.409 186.301L121.094 188.403C120.775 188.138 120.402 187.93 119.975 187.778C119.555 187.622 119.085 187.573 118.567 187.631C118.048 187.689 117.491 187.905 116.895 188.281C116.08 188.793 115.516 189.404 115.201 190.112C114.882 190.815 114.902 191.451 115.261 192.021C115.572 192.515 116.005 192.798 116.56 192.869C117.115 192.94 117.861 192.816 118.796 192.495L121.481 191.556C123.038 191.015 124.356 190.861 125.434 191.095C126.513 191.33 127.381 191.969 128.039 193.014C128.596 193.899 128.836 194.849 128.759 195.864C128.684 196.869 128.315 197.853 127.651 198.818C126.993 199.778 126.068 200.633 124.876 201.384C123.222 202.425 121.65 202.922 120.161 202.875C118.668 202.821 117.391 202.215 116.331 201.057L118.843 198.884C119.473 199.499 120.174 199.824 120.946 199.856C121.715 199.883 122.532 199.624 123.397 199.079C124.34 198.485 124.97 197.815 125.288 197.069C125.602 196.317 125.579 195.655 125.22 195.084C124.929 194.623 124.512 194.344 123.968 194.248C123.43 194.147 122.759 194.239 121.953 194.523L119.107 195.549C117.531 196.103 116.197 196.244 115.105 195.974C114.019 195.7 113.145 195.037 112.483 193.986C111.934 193.114 111.697 192.197 111.773 191.237C111.848 190.276 112.201 189.343 112.83 188.436C113.455 187.524 114.322 186.718 115.431 186.02C117.027 185.015 118.502 184.57 119.854 184.685C121.203 184.794 122.388 185.332 123.409 186.301ZM141.953 181.644C141.227 183.17 140.256 184.319 139.041 185.091C137.822 185.854 136.461 186.238 134.957 186.243C133.452 186.249 131.91 185.876 130.33 185.124C128.729 184.362 127.46 183.389 126.522 182.204C125.577 181.016 125.019 179.711 124.849 178.287C124.679 176.864 124.947 175.41 125.654 173.926C126.223 172.729 126.954 171.767 127.844 171.042C128.728 170.313 129.703 169.85 130.77 169.653C131.841 169.449 132.932 169.545 134.044 169.94L132.623 172.926C131.806 172.738 130.991 172.812 130.178 173.146C129.367 173.474 128.729 174.127 128.264 175.105C127.857 175.96 127.726 176.816 127.872 177.674C128.014 178.522 128.414 179.321 129.072 180.07C129.724 180.817 130.611 181.457 131.732 181.991C132.882 182.538 133.957 182.835 134.957 182.884C135.958 182.932 136.839 182.747 137.6 182.329C138.364 181.904 138.953 181.257 139.366 180.388C139.643 179.807 139.788 179.23 139.8 178.657C139.809 178.074 139.688 177.526 139.438 177.012C139.19 176.492 138.814 176.031 138.308 175.631L139.729 172.645C140.696 173.24 141.448 174.004 141.985 174.939C142.521 175.874 142.797 176.916 142.813 178.064C142.832 179.206 142.545 180.399 141.953 181.644ZM144.1 164.372C144.35 165.989 144.198 167.458 143.643 168.778C143.088 170.098 142.196 171.194 140.966 172.066C139.737 172.939 138.231 173.513 136.449 173.788C134.66 174.065 133.044 173.974 131.6 173.515C130.157 173.056 128.972 172.281 128.044 171.19C127.117 170.099 126.528 168.745 126.278 167.128C126.028 165.511 126.18 164.042 126.735 162.722C127.29 161.402 128.186 160.306 129.423 159.432C130.66 158.559 132.173 157.983 133.962 157.707C135.744 157.431 137.353 157.523 138.789 157.984C140.224 158.444 141.406 159.219 142.333 160.31C143.261 161.401 143.85 162.755 144.1 164.372ZM141.28 164.797C141.117 163.748 140.706 162.923 140.046 162.32C139.385 161.717 138.569 161.322 137.597 161.135C136.624 160.94 135.584 160.929 134.476 161.1C133.375 161.27 132.39 161.595 131.522 162.074C130.644 162.547 129.978 163.171 129.523 163.947C129.068 164.723 128.921 165.635 129.084 166.683C129.247 167.738 129.663 168.571 130.332 169.18C131 169.782 131.825 170.18 132.805 170.373C133.777 170.56 134.813 170.569 135.914 170.398C137.022 170.227 138.011 169.905 138.88 169.434C139.749 168.954 140.407 168.327 140.855 167.553C141.301 166.771 141.443 165.852 141.28 164.797ZM128.482 149.034L120.363 155.235L118.294 152.526L132.165 141.932L134.193 144.587L131.791 146.421L131.901 146.566C132.885 146.319 133.893 146.36 134.925 146.687C135.946 147.013 136.854 147.697 137.65 148.739C138.33 149.63 138.737 150.568 138.87 151.553C138.992 152.537 138.814 153.521 138.337 154.505C137.854 155.484 137.041 156.41 135.897 157.284L127.074 164.022L125.011 161.322L133.51 154.832C134.455 154.11 135.008 153.273 135.167 152.322C135.327 151.37 135.088 150.476 134.449 149.639C134.062 149.133 133.552 148.727 132.917 148.421C132.278 148.108 131.576 147.982 130.812 148.041C130.042 148.095 129.266 148.426 128.482 149.034ZM128.932 138.969L119.454 153.626L116.696 151.843L118.202 149.515L118.049 149.416C117.272 150.032 116.4 150.348 115.434 150.363C114.457 150.381 113.539 150.113 112.68 149.557C112.502 149.442 112.296 149.3 112.063 149.131C111.823 148.958 111.639 148.816 111.512 148.707L113.276 145.978C113.37 146.084 113.551 146.25 113.819 146.478C114.083 146.711 114.361 146.923 114.654 147.112C115.328 147.548 116.022 147.794 116.735 147.849C117.438 147.906 118.104 147.782 118.734 147.477C119.361 147.178 119.88 146.711 120.291 146.075L126.079 137.124L128.932 138.969ZM101.552 140.495L104.626 141.071C104.607 141.485 104.667 141.908 104.803 142.34C104.933 142.77 105.177 143.174 105.537 143.552C105.896 143.93 106.405 144.244 107.065 144.492C107.965 144.832 108.792 144.913 109.547 144.736C110.299 144.566 110.794 144.166 111.032 143.535C111.238 142.989 111.202 142.473 110.923 141.988C110.645 141.502 110.095 140.984 109.275 140.432L106.905 138.858C105.533 137.944 104.615 136.987 104.15 135.986C103.686 134.985 103.671 133.907 104.107 132.751C104.476 131.773 105.088 131.008 105.944 130.456C106.789 129.909 107.797 129.608 108.967 129.556C110.129 129.5 111.37 129.721 112.688 130.218C114.517 130.907 115.863 131.859 116.724 133.075C117.583 134.297 117.871 135.681 117.588 137.226L114.339 136.535C114.449 135.662 114.284 134.908 113.844 134.272C113.401 133.644 112.701 133.149 111.744 132.788C110.702 132.395 109.787 132.298 109 132.495C108.211 132.699 107.697 133.117 107.459 133.748C107.267 134.258 107.297 134.759 107.549 135.251C107.793 135.74 108.272 136.22 108.985 136.691L111.521 138.339C112.915 139.261 113.833 140.239 114.277 141.273C114.715 142.304 114.714 143.401 114.276 144.563C113.912 145.527 113.325 146.269 112.514 146.789C111.702 147.309 110.746 147.592 109.643 147.638C108.538 147.691 107.373 147.487 106.146 147.024C104.381 146.359 103.136 145.452 102.411 144.305C101.683 143.164 101.397 141.894 101.552 140.495ZM82.5726 137.374L95.5243 127.019L97.5334 129.442L84.9589 140.252L82.5726 137.374ZM101.844 123.816C102.245 124.3 102.419 124.854 102.366 125.479C102.308 126.108 102.034 126.621 101.545 127.016C101.072 127.419 100.523 127.588 99.8996 127.524C99.2702 127.465 98.7548 127.194 98.3535 126.71C97.9618 126.238 97.7954 125.687 97.8542 125.057C97.9071 124.433 98.1703 123.919 98.6437 123.517C98.9693 123.257 99.3339 123.097 99.7376 123.038C100.131 122.978 100.515 123.014 100.89 123.146C101.265 123.278 101.583 123.501 101.844 123.816Z" fill="black"/>
</svg>
